<?xml version="1.0" encoding="UTF-8" standalone="no"?>
<!DOCTYPE svg PUBLIC "-//W3C//DTD SVG 1.0//EN" "http://www.w3.org/TR/2001/PR-SVG-20010719/DTD/svg10.dtd">
<svg width="96cm" height="36cm" viewBox="-379 -240 1916 720" xmlns="http://www.w3.org/2000/svg" xmlns:xlink="http://www.w3.org/1999/xlink">
  <g>
    <rect style="fill: #90ee90" x="2.54054" y="-238.516" width="307.014" height="717.363"/>
    <rect style="fill: none; fill-opacity:0; stroke-width: 2; stroke: #000000" x="2.54054" y="-238.516" width="307.014" height="717.363"/>
  </g>
  <g>
    <ellipse style="fill: #cbfecb" cx="154.457" cy="-154.184" rx="122.111" ry="38.7719"/>
    <ellipse style="fill: none; fill-opacity:0; stroke-width: 2; stroke: #000000" cx="154.457" cy="-154.184" rx="122.111" ry="38.7719"/>
  </g>
  <text font-size="12.8" style="fill: #000000;text-anchor:start;font-family:sans-serif;font-style:normal;font-weight:normal" x="61.5022" y="-154.184">
    <tspan x="61.5022" y="-154.184">Iniciar Sesion en el sistema</tspan>
  </text>
  <g>
    <ellipse style="fill: #cbfecb" cx="155.831" cy="40.0457" rx="122.111" ry="38.7719"/>
    <ellipse style="fill: none; fill-opacity:0; stroke-width: 2; stroke: #000000" cx="155.831" cy="40.0457" rx="122.111" ry="38.7719"/>
  </g>
  <g>
    <ellipse style="fill: #cbfecb" cx="155.677" cy="-58.1917" rx="122.111" ry="38.7719"/>
    <ellipse style="fill: none; fill-opacity:0; stroke-width: 2; stroke: #000000" cx="155.677" cy="-58.1917" rx="122.111" ry="38.7719"/>
  </g>
  <text font-size="12.8" style="fill: #000000;text-anchor:start;font-family:sans-serif;font-style:normal;font-weight:normal" x="201.402" y="180.698">
    <tspan x="201.402" y="180.698"></tspan>
  </text>
  <text font-size="12.8" style="fill: #000000;text-anchor:start;font-family:sans-serif;font-style:normal;font-weight:normal" x="109.051" y="-213.872">
    <tspan x="109.051" y="-213.872">Systema POS</tspan>
  </text>
  <g>
    <ellipse style="fill: #cbfecb" cx="160.176" cy="230.442" rx="122.111" ry="38.7719"/>
    <ellipse style="fill: none; fill-opacity:0; stroke-width: 2; stroke: #000000" cx="160.176" cy="230.442" rx="122.111" ry="38.7719"/>
  </g>
  <g>
    <ellipse style="fill: #cbfecb" cx="160.87" cy="325.71" rx="122.111" ry="38.7719"/>
    <ellipse style="fill: none; fill-opacity:0; stroke-width: 2; stroke: #000000" cx="160.87" cy="325.71" rx="122.111" ry="38.7719"/>
  </g>
  <g>
    <ellipse style="fill: #cbfecb" cx="160.669" cy="420.334" rx="122.111" ry="38.7719"/>
    <ellipse style="fill: none; fill-opacity:0; stroke-width: 2; stroke: #000000" cx="160.669" cy="420.334" rx="122.111" ry="38.7719"/>
  </g>
  <text font-size="12.8" style="fill: #000000;text-anchor:start;font-family:sans-serif;font-style:normal;font-weight:normal" x="98.3288" y="426.36">
    <tspan x="98.3288" y="426.36">Administrar Clientes</tspan>
    <tspan x="98.3288" y="442.36">      (A, B, M, C)</tspan>
  </text>
  <text font-size="12.8" style="fill: #000000;text-anchor:start;font-family:sans-serif;font-style:normal;font-weight:normal" x="185.378" y="431.616">
    <tspan x="185.378" y="431.616"></tspan>
  </text>
  <line style="fill: none; fill-opacity:0; stroke-width: 2; stroke: #000000" x1="-308.698" y1="194.9" x2="34.9844" y2="134.042"/>
  <line style="fill: none; fill-opacity:0; stroke-width: 2; stroke: #000000" x1="-308.698" y1="194.9" x2="32.346" y2="-154.184"/>
  <line style="fill: none; fill-opacity:0; stroke-width: 2; stroke: #000000" x1="-308.698" y1="194.9" x2="33.7196" y2="40.0457"/>
  <line style="fill: none; fill-opacity:0; stroke-width: 2; stroke: #000000" x1="-308.698" y1="194.9" x2="33.5656" y2="-58.1917"/>
  <line style="fill: none; fill-opacity:0; stroke-width: 2; stroke: #000000" x1="-308.698" y1="194.9" x2="38.0646" y2="230.442"/>
  <line style="fill: none; fill-opacity:0; stroke-width: 2; stroke: #000000" x1="-308.698" y1="194.9" x2="38.7586" y2="325.71"/>
  <line style="fill: none; fill-opacity:0; stroke-width: 2; stroke: #000000" x1="-308.698" y1="194.9" x2="38.5576" y2="420.334"/>
  <text font-size="12.8" style="fill: #000000;text-anchor:start;font-family:sans-serif;font-style:normal;font-weight:normal" x="276.662" y="-271.414">
    <tspan x="276.662" y="-271.414"></tspan>
  </text>
  <g>
    <ellipse style="fill: #ffffff" cx="-333.698" cy="158.9" rx="6" ry="6"/>
    <ellipse style="fill: none; fill-opacity:0; stroke-width: 2; stroke: #000000" cx="-333.698" cy="158.9" rx="6" ry="6"/>
    <line style="fill: none; fill-opacity:0; stroke-width: 2; stroke: #000000" x1="-357.698" y1="170.9" x2="-309.698" y2="170.9"/>
    <line style="fill: none; fill-opacity:0; stroke-width: 2; stroke: #000000" x1="-333.698" y1="164.9" x2="-333.698" y2="194.9"/>
    <line style="fill: none; fill-opacity:0; stroke-width: 2; stroke: #000000" x1="-333.698" y1="194.9" x2="-357.698" y2="220.9"/>
    <line style="fill: none; fill-opacity:0; stroke-width: 2; stroke: #000000" x1="-333.698" y1="194.9" x2="-309.698" y2="220.9"/>
    <text font-size="12.8" style="fill: #000000;text-anchor:middle;font-family:sans-serif;font-style:normal;font-weight:normal" x="-333.698" y="244.8">
      <tspan x="-333.698" y="244.8">Administrador</tspan>
    </text>
  </g>
  <text font-size="12.8" style="fill: #000000;text-anchor:start;font-family:sans-serif;font-style:normal;font-weight:normal" x="92.7022" y="37.7079">
    <tspan x="92.7022" y="37.7079">Adminstrar productos </tspan>
    <tspan x="92.7022" y="53.7079">        (A, M, C)</tspan>
  </text>
  <g>
    <ellipse style="fill: #cbfecb" cx="157.096" cy="134.042" rx="122.111" ry="38.7719"/>
    <ellipse style="fill: none; fill-opacity:0; stroke-width: 2; stroke: #000000" cx="157.096" cy="134.042" rx="122.111" ry="38.7719"/>
  </g>
  <text font-size="12.8" style="fill: #000000;text-anchor:start;font-family:sans-serif;font-style:normal;font-weight:normal" x="115.929" y="-54.6841">
    <tspan x="115.929" y="-54.6841">Cerrar sesion</tspan>
  </text>
  <text font-size="12.8" style="fill: #000000;text-anchor:start;font-family:sans-serif;font-style:normal;font-weight:normal" x="100.363" y="235.72">
    <tspan x="100.363" y="235.72">Consulta de reportes</tspan>
  </text>
  <text font-size="12.8" style="fill: #000000;text-anchor:start;font-family:sans-serif;font-style:normal;font-weight:normal" x="102.245" y="333.684">
    <tspan x="102.245" y="333.684">Administrar inventario</tspan>
    <tspan x="102.245" y="349.684">      (A, B, M, C)</tspan>
  </text>
  <text font-size="12.8" style="fill: #000000;text-anchor:start;font-family:sans-serif;font-style:normal;font-weight:normal" x="99.8124" y="136.056">
    <tspan x="99.8124" y="136.056">Administra usuario</tspan>
    <tspan x="99.8124" y="152.056">       (A, B, M, C)</tspan>
  </text>
  <g>
    <ellipse style="fill: #ffffff" cx="527.903" cy="201.336" rx="6" ry="6"/>
    <ellipse style="fill: none; fill-opacity:0; stroke-width: 2; stroke: #000000" cx="527.903" cy="201.336" rx="6" ry="6"/>
    <line style="fill: none; fill-opacity:0; stroke-width: 2; stroke: #000000" x1="503.903" y1="213.336" x2="551.903" y2="213.336"/>
    <line style="fill: none; fill-opacity:0; stroke-width: 2; stroke: #000000" x1="527.903" y1="207.336" x2="527.903" y2="237.336"/>
    <line style="fill: none; fill-opacity:0; stroke-width: 2; stroke: #000000" x1="527.903" y1="237.336" x2="503.903" y2="263.336"/>
    <line style="fill: none; fill-opacity:0; stroke-width: 2; stroke: #000000" x1="527.903" y1="237.336" x2="551.903" y2="263.336"/>
    <text font-size="12.8" style="fill: #000000;text-anchor:middle;font-family:sans-serif;font-style:normal;font-weight:normal" x="527.903" y="287.236">
      <tspan x="527.903" y="287.236">Cliente</tspan>
      <tspan x="527.903" y="303.236"></tspan>
    </text>
  </g>
  <text font-size="12.8" style="fill: #000000;text-anchor:start;font-family:sans-serif;font-style:normal;font-weight:normal" x="527.903" y="237.336">
    <tspan x="527.903" y="237.336"></tspan>
  </text>
  <text font-size="12.8" style="fill: #000000;text-anchor:start;font-family:sans-serif;font-style:normal;font-weight:normal" x="527.903" y="237.336">
    <tspan x="527.903" y="237.336"></tspan>
  </text>
  <g>
    <rect style="fill: #ffa500" x="624.903" y="25.336" width="293" height="451"/>
    <rect style="fill: none; fill-opacity:0; stroke-width: 2; stroke: #000000" x="624.903" y="25.336" width="293" height="451"/>
  </g>
  <g>
    <ellipse style="fill: #ffc75e" cx="767.403" cy="80.836" rx="67.502" ry="28.5"/>
    <ellipse style="fill: none; fill-opacity:0; stroke-width: 2; stroke: #000000" cx="767.403" cy="80.836" rx="67.502" ry="28.5"/>
  </g>
  <g>
    <ellipse style="fill: #ffc75e" cx="767.903" cy="165.336" rx="63" ry="32"/>
    <ellipse style="fill: none; fill-opacity:0; stroke-width: 2; stroke: #000000" cx="767.903" cy="165.336" rx="63" ry="32"/>
  </g>
  <text font-size="12.8" style="fill: #000000;text-anchor:start;font-family:sans-serif;font-style:normal;font-weight:normal" x="767.403" y="80.836">
    <tspan x="767.403" y="80.836"></tspan>
  </text>
  <text font-size="10.16" style="fill: #000000;text-anchor:middle;font-family:sans-serif;font-style:normal;font-weight:normal" x="767.403" y="80.836">
    <tspan x="767.403" y="80.836">Solicitar la compra</tspan>
    <tspan x="767.403" y="93.536">del producto</tspan>
  </text>
  <text font-size="11.2889" style="fill: #000000;text-anchor:middle;font-family:sans-serif;font-style:normal;font-weight:normal" x="767.903" y="165.336">
    <tspan x="767.903" y="165.336">Recibir ticket </tspan>
    <tspan x="767.903" y="179.447">de compra</tspan>
  </text>
  <g>
    <ellipse style="fill: #ffc75e" cx="767.153" cy="247.886" rx="63" ry="32"/>
    <ellipse style="fill: none; fill-opacity:0; stroke-width: 2; stroke: #000000" cx="767.153" cy="247.886" rx="63" ry="32"/>
  </g>
  <text font-size="10.16" style="fill: #000000;text-anchor:middle;font-family:sans-serif;font-style:normal;font-weight:normal" x="767.153" y="247.886">
    <tspan x="767.153" y="247.886">Realizar el pago </tspan>
    <tspan x="767.153" y="260.586">del producto</tspan>
  </text>
  <g>
    <ellipse style="fill: #ffc75e" cx="767.153" cy="336.886" rx="63" ry="32"/>
    <ellipse style="fill: none; fill-opacity:0; stroke-width: 2; stroke: #000000" cx="767.153" cy="336.886" rx="63" ry="32"/>
  </g>
  <text font-size="11.2889" style="fill: #000000;text-anchor:middle;font-family:sans-serif;font-style:normal;font-weight:normal" x="767.153" y="336.886">
    <tspan x="767.153" y="336.886">Añadir productos</tspan>
    <tspan x="767.153" y="350.997">al carrito</tspan>
  </text>
  <g>
    <ellipse style="fill: #ffc75e" cx="766.403" cy="421.436" rx="63" ry="32"/>
    <ellipse style="fill: none; fill-opacity:0; stroke-width: 2; stroke: #000000" cx="766.403" cy="421.436" rx="63" ry="32"/>
  </g>
  <text font-size="11.2889" style="fill: #000000;text-anchor:middle;font-family:sans-serif;font-style:normal;font-weight:normal" x="766.403" y="421.436">
    <tspan x="766.403" y="421.436">Poder añadir tips</tspan>
    <tspan x="766.403" y="435.547">al ticket</tspan>
    <tspan x="766.403" y="449.658"></tspan>
  </text>
  <line style="fill: none; fill-opacity:0; stroke-width: 2; stroke: #000000" x1="552.903" y1="237.336" x2="699.901" y2="80.836"/>
  <line style="fill: none; fill-opacity:0; stroke-width: 2; stroke: #000000" x1="552.903" y1="237.336" x2="704.903" y2="165.336"/>
  <line style="fill: none; fill-opacity:0; stroke-width: 2; stroke: #000000" x1="553.904" y1="238.892" x2="704.153" y2="247.886"/>
  <line style="fill: none; fill-opacity:0; stroke-width: 2; stroke: #000000" x1="552.903" y1="237.336" x2="704.153" y2="336.886"/>
  <line style="fill: none; fill-opacity:0; stroke-width: 2; stroke: #000000" x1="552.903" y1="237.336" x2="703.403" y2="421.436"/>
  <g>
    <rect style="fill: #1e90ff" x="1226.71" y="48.1948" width="308.999" height="429.998"/>
    <rect style="fill: none; fill-opacity:0; stroke-width: 2; stroke: #000000" x="1226.71" y="48.1948" width="308.999" height="429.998"/>
  </g>
  <g>
    <ellipse style="fill: #ffffff" cx="1123.8" cy="229.168" rx="6" ry="6"/>
    <ellipse style="fill: none; fill-opacity:0; stroke-width: 2; stroke: #000000" cx="1123.8" cy="229.168" rx="6" ry="6"/>
    <line style="fill: none; fill-opacity:0; stroke-width: 2; stroke: #000000" x1="1099.8" y1="241.168" x2="1147.8" y2="241.168"/>
    <line style="fill: none; fill-opacity:0; stroke-width: 2; stroke: #000000" x1="1123.8" y1="235.168" x2="1123.8" y2="265.168"/>
    <line style="fill: none; fill-opacity:0; stroke-width: 2; stroke: #000000" x1="1123.8" y1="265.168" x2="1099.8" y2="291.168"/>
    <line style="fill: none; fill-opacity:0; stroke-width: 2; stroke: #000000" x1="1123.8" y1="265.168" x2="1147.8" y2="291.168"/>
    <text font-size="12.8" style="fill: #000000;text-anchor:middle;font-family:sans-serif;font-style:normal;font-weight:normal" x="1123.8" y="315.068">
      <tspan x="1123.8" y="315.068">Cajero</tspan>
    </text>
  </g>
  <text font-size="12.8" style="fill: #000000;text-anchor:start;font-family:sans-serif;font-style:normal;font-weight:normal" x="1123.8" y="265.168">
    <tspan x="1123.8" y="265.168"></tspan>
  </text>
  <text font-size="12.8" style="fill: #000000;text-anchor:start;font-family:sans-serif;font-style:normal;font-weight:normal" x="1341.81" y="207.274">
    <tspan x="1341.81" y="207.274"></tspan>
  </text>
  <g>
    <ellipse style="fill: #add8e6" cx="1374.8" cy="145.263" rx="55.4739" ry="24.9894"/>
    <ellipse style="fill: none; fill-opacity:0; stroke-width: 2; stroke: #000000" cx="1374.8" cy="145.263" rx="55.4739" ry="24.9894"/>
  </g>
  <text font-size="12.8" style="fill: #000000;text-anchor:start;font-family:sans-serif;font-style:normal;font-weight:normal" x="1339.11" y="253.907">
    <tspan x="1339.11" y="253.907"></tspan>
  </text>
  <g>
    <ellipse style="fill: #add8e6" cx="1375.84" cy="205.908" rx="57.109" ry="26.1786"/>
    <ellipse style="fill: none; fill-opacity:0; stroke-width: 2; stroke: #000000" cx="1375.84" cy="205.908" rx="57.109" ry="26.1786"/>
  </g>
  <g>
    <ellipse style="fill: #add8e6" cx="1376.86" cy="272.839" rx="53.3928" ry="26.7732"/>
    <ellipse style="fill: none; fill-opacity:0; stroke-width: 2; stroke: #000000" cx="1376.86" cy="272.839" rx="53.3928" ry="26.7732"/>
  </g>
  <text font-size="12.8" style="fill: #000000;text-anchor:start;font-family:sans-serif;font-style:normal;font-weight:normal" x="1346.06" y="350.824">
    <tspan x="1346.06" y="350.824"></tspan>
  </text>
  <g>
    <ellipse style="fill: #add8e6" cx="1380.09" cy="349.458" rx="57.109" ry="26.1786"/>
    <ellipse style="fill: none; fill-opacity:0; stroke-width: 2; stroke: #000000" cx="1380.09" cy="349.458" rx="57.109" ry="26.1786"/>
  </g>
  <text font-size="12.8" style="fill: #000000;text-anchor:start;font-family:sans-serif;font-style:normal;font-weight:normal" x="1346.31" y="420.824">
    <tspan x="1346.31" y="420.824"></tspan>
  </text>
  <g>
    <ellipse style="fill: #add8e6" cx="1377.34" cy="416.459" rx="65.3643" ry="30.7347"/>
    <ellipse style="fill: none; fill-opacity:0; stroke-width: 2; stroke: #000000" cx="1377.34" cy="416.459" rx="65.3643" ry="30.7347"/>
  </g>
  <line style="fill: none; fill-opacity:0; stroke-width: 2; stroke: #000000" x1="1148.8" y1="265.168" x2="1319.32" y2="145.263"/>
  <line style="fill: none; fill-opacity:0; stroke-width: 2; stroke: #000000" x1="1148.8" y1="265.168" x2="1318.73" y2="205.908"/>
  <line style="fill: none; fill-opacity:0; stroke-width: 2; stroke: #000000" x1="1148.8" y1="265.168" x2="1323.47" y2="272.839"/>
  <line style="fill: none; fill-opacity:0; stroke-width: 2; stroke: #000000" x1="1148.8" y1="265.168" x2="1322.98" y2="349.458"/>
  <line style="fill: none; fill-opacity:0; stroke-width: 2; stroke: #000000" x1="1148.8" y1="265.168" x2="1311.98" y2="416.459"/>
  <text font-size="10.16" style="fill: #000000;text-anchor:start;font-family:sans-serif;font-style:normal;font-weight:normal" x="1319.21" y="419.594">
    <tspan x="1319.21" y="419.594">Finalizar Transacciones</tspan>
  </text>
  <text font-size="10.16" style="fill: #000000;text-anchor:start;font-family:sans-serif;font-style:normal;font-weight:normal" x="1337.21" y="352.594">
    <tspan x="1337.21" y="352.594">Generar Tickets</tspan>
  </text>
  <text font-size="9.03111" style="fill: #000000;text-anchor:middle;font-family:sans-serif;font-style:normal;font-weight:normal" x="1376.86" y="272.839">
    <tspan x="1376.86" y="272.839">Consultar precios</tspan>
    <tspan x="1376.86" y="284.128">de productos</tspan>
  </text>
  <text font-size="9.03111" style="fill: #000000;text-anchor:start;font-family:sans-serif;font-style:normal;font-weight:normal" x="1324.21" y="210.594">
    <tspan x="1324.21" y="210.594">Seleccionar Podructos</tspan>
  </text>
  <text font-size="10.16" style="fill: #000000;text-anchor:start;font-family:sans-serif;font-style:normal;font-weight:normal" x="1330.21" y="148.594">
    <tspan x="1330.21" y="148.594">Registrar Ventas</tspan>
  </text>
  <g>
    <ellipse style="fill: #add8e6" cx="1377.43" cy="86.1842" rx="56.2171" ry="24.9894"/>
    <ellipse style="fill: none; fill-opacity:0; stroke-width: 2; stroke: #000000" cx="1377.43" cy="86.1842" rx="56.2171" ry="24.9894"/>
  </g>
  <text font-size="10.16" style="fill: #000000;text-anchor:start;font-family:sans-serif;font-style:normal;font-weight:normal" x="1341.9" y="89.024">
    <tspan x="1341.9" y="89.024">Iniciar Sesion</tspan>
  </text>
  <line style="fill: none; fill-opacity:0; stroke-width: 2; stroke: #000000" x1="1148.8" y1="265.168" x2="1321.21" y2="86.1842"/>
</svg>
