<?xml version="1.0" encoding="UTF-8" standalone="no"?>
<!DOCTYPE svg PUBLIC "-//W3C//DTD SVG 1.0//EN" "http://www.w3.org/TR/2001/PR-SVG-20010719/DTD/svg10.dtd">
<svg width="46cm" height="21cm" viewBox="-388 -122 919 417" xmlns="http://www.w3.org/2000/svg" xmlns:xlink="http://www.w3.org/1999/xlink">
  <g>
    <rect style="fill: #ffffff" x="-22.9184" y="-28.0193" width="66.5" height="36"/>
    <rect style="fill: none; fill-opacity:0; stroke-width: 2; stroke: #000000" x="-22.9184" y="-28.0193" width="66.5" height="36"/>
    <text font-size="12.7998" style="fill: #000000;text-anchor:middle;font-family:monospace;font-style:normal;font-weight:normal" x="10.3316" y="-6.01934">Libro</text>
  </g>
  <g>
    <ellipse style="fill: #ffffff" cx="-16.4503" cy="-87.9796" rx="43.1" ry="18"/>
    <ellipse style="fill: none; fill-opacity:0; stroke-width: 2; stroke: #000000" cx="-16.4503" cy="-87.9796" rx="43.1" ry="18"/>
    <text font-size="12.7998" style="fill: #000000;text-anchor:middle;font-family:monospace;font-style:normal;font-weight:normal" x="-16.4503" y="-83.9796">Titulo</text>
  </g>
  <g>
    <rect style="fill: #ffffff" x="448.316" y="-1.32332" width="66.5" height="36"/>
    <rect style="fill: none; fill-opacity:0; stroke-width: 2; stroke: #000000" x="448.316" y="-1.32332" width="66.5" height="36"/>
    <text font-size="12.7998" style="fill: #000000;text-anchor:middle;font-family:monospace;font-style:normal;font-weight:normal" x="481.566" y="20.6767">Autor</text>
  </g>
  <g>
    <rect style="fill: #ffffff" x="-302.392" y="45.1582" width="97.3" height="36"/>
    <rect style="fill: none; fill-opacity:0; stroke-width: 2; stroke: #000000" x="-302.392" y="45.1582" width="97.3" height="36"/>
    <text font-size="12.7998" style="fill: #000000;text-anchor:middle;font-family:monospace;font-style:normal;font-weight:normal" x="-253.742" y="67.1582">Editorial</text>
  </g>
  <g>
    <rect style="fill: #ffffff" x="-303.534" y="217.138" width="74.2" height="36"/>
    <rect style="fill: none; fill-opacity:0; stroke-width: 2; stroke: #000000" x="-303.534" y="217.138" width="74.2" height="36"/>
    <text font-size="12.7998" style="fill: #000000;text-anchor:middle;font-family:monospace;font-style:normal;font-weight:normal" x="-266.434" y="239.138">Genero</text>
  </g>
  <g>
    <polygon style="fill: #ffffff" points="-114.411,236.484 -48.2107,196.764 17.9893,236.484 -48.2107,276.204 "/>
    <polygon style="fill: none; fill-opacity:0; stroke-width: 2; stroke: #000000" points="-114.411,236.484 -48.2107,196.764 17.9893,236.484 -48.2107,276.204 "/>
    <text font-size="12.7998" style="fill: #000000;text-anchor:end;font-family:monospace;font-style:normal;font-weight:normal" x="-120.411" y="230.484"></text>
    <text font-size="12.7998" style="fill: #000000;text-anchor:start;font-family:monospace;font-style:normal;font-weight:normal" x="23.9893" y="230.484"></text>
    <text font-size="12.7998" style="fill: #000000;text-anchor:middle;font-family:monospace;font-style:normal;font-weight:normal" x="-48.2107" y="240.484">Relationship</text>
  </g>
  <line style="fill: none; fill-opacity:0; stroke-width: 2; stroke: #000000" x1="-48.2107" y1="196.764" x2="179.668" y2="176.665"/>
  <line style="fill: none; fill-opacity:0; stroke-width: 2; stroke: #000000" x1="-114.411" y1="236.484" x2="-228.336" y2="235.475"/>
  <g>
    <polygon style="fill: #ffffff" points="267.219,-1.4134 333.419,-41.1334 399.619,-1.4134 333.419,38.3066 "/>
    <polygon style="fill: none; fill-opacity:0; stroke-width: 2; stroke: #000000" points="267.219,-1.4134 333.419,-41.1334 399.619,-1.4134 333.419,38.3066 "/>
    <text font-size="12.7998" style="fill: #000000;text-anchor:end;font-family:monospace;font-style:normal;font-weight:normal" x="261.219" y="-7.4134"></text>
    <text font-size="12.7998" style="fill: #000000;text-anchor:start;font-family:monospace;font-style:normal;font-weight:normal" x="405.619" y="-7.4134"></text>
    <text font-size="12.7998" style="fill: #000000;text-anchor:middle;font-family:monospace;font-style:normal;font-weight:normal" x="333.419" y="2.5866">Relationship</text>
  </g>
  <line style="fill: none; fill-opacity:0; stroke-width: 2; stroke: #000000" x1="399.619" y1="-1.4134" x2="447.474" y2="9.15092"/>
  <line style="fill: none; fill-opacity:0; stroke-width: 2; stroke: #000000" x1="257.421" y1="151.937" x2="333.419" y2="38.3066"/>
  <g>
    <polygon style="fill: #ffffff" points="-157.024,66.608 -90.8244,26.888 -24.6244,66.608 -90.8244,106.328 "/>
    <polygon style="fill: none; fill-opacity:0; stroke-width: 2; stroke: #000000" points="-157.024,66.608 -90.8244,26.888 -24.6244,66.608 -90.8244,106.328 "/>
    <text font-size="12.7998" style="fill: #000000;text-anchor:end;font-family:monospace;font-style:normal;font-weight:normal" x="-163.024" y="60.608"></text>
    <text font-size="12.7998" style="fill: #000000;text-anchor:start;font-family:monospace;font-style:normal;font-weight:normal" x="-18.6244" y="60.608"></text>
    <text font-size="12.7998" style="fill: #000000;text-anchor:middle;font-family:monospace;font-style:normal;font-weight:normal" x="-90.8244" y="70.608">Relationship</text>
  </g>
  <line style="fill: none; fill-opacity:0; stroke-width: 2; stroke: #000000" x1="-23.9098" y1="2.47382" x2="-90.8244" y2="26.888"/>
  <line style="fill: none; fill-opacity:0; stroke-width: 2; stroke: #000000" x1="-157.024" y1="66.608" x2="-204.096" y2="64.929"/>
  <g>
    <rect style="fill: #ffffff" x="180.671" y="152.927" width="128.1" height="36"/>
    <rect style="fill: none; fill-opacity:0; stroke-width: 2; stroke: #000000" x="180.671" y="152.927" width="128.1" height="36"/>
    <rect style="fill: none; fill-opacity:0; stroke-width: 2; stroke: #000000" x="185.671" y="157.927" width="118.1" height="26"/>
    <text font-size="12.7998" style="fill: #000000;text-anchor:middle;font-family:monospace;font-style:normal;font-weight:normal" x="244.721" y="174.927">RelacionLibro</text>
  </g>
  <g>
    <polygon style="fill: #ffffff" points="106.413,41.8663 172.613,2.14634 238.813,41.8663 172.613,81.5863 "/>
    <polygon style="fill: none; fill-opacity:0; stroke-width: 2; stroke: #000000" points="106.413,41.8663 172.613,2.14634 238.813,41.8663 172.613,81.5863 "/>
    <text font-size="12.7998" style="fill: #000000;text-anchor:end;font-family:monospace;font-style:normal;font-weight:normal" x="100.413" y="35.8663"></text>
    <text font-size="12.7998" style="fill: #000000;text-anchor:start;font-family:monospace;font-style:normal;font-weight:normal" x="244.813" y="35.8663"></text>
    <text font-size="12.7998" style="fill: #000000;text-anchor:middle;font-family:monospace;font-style:normal;font-weight:normal" x="172.613" y="45.8663">Relationship</text>
  </g>
  <line style="fill: none; fill-opacity:0; stroke-width: 2; stroke: #000000" x1="172.613" y1="81.5863" x2="229.44" y2="151.994"/>
  <line style="fill: none; fill-opacity:0; stroke-width: 2; stroke: #000000" x1="44.5852" y1="8.47824" x2="106.413" y2="41.8663"/>
  <g>
    <ellipse style="fill: #ffffff" cx="-115.924" cy="-87.4146" rx="43.1" ry="18"/>
    <ellipse style="fill: none; fill-opacity:0; stroke-width: 2; stroke: #000000" cx="-115.924" cy="-87.4146" rx="43.1" ry="18"/>
    <text font-size="12.7998" style="fill: #000000;text-anchor:middle;font-family:monospace;font-style:normal;font-weight:normal" x="-115.924" y="-83.4146">Genero</text>
  </g>
  <g>
    <ellipse style="fill: #ffffff" cx="129.403" cy="-102.523" rx="62.35" ry="18"/>
    <ellipse style="fill: none; fill-opacity:0; stroke-width: 2; stroke: #000000" cx="129.403" cy="-102.523" rx="62.35" ry="18"/>
    <text font-size="12.7998" style="fill: #000000;text-anchor:middle;font-family:monospace;font-style:normal;font-weight:normal" x="129.403" y="-98.5231">idEditorial</text>
    <line style="fill: none; fill-opacity:0; stroke-width: 2; stroke-dasharray: 6; stroke: #000000" x1="87.053" y1="-94.5231" x2="171.753" y2="-94.5231"/>
  </g>
  <g>
    <ellipse style="fill: #ffffff" cx="-181.34" cy="-52.2439" rx="31.55" ry="18"/>
    <ellipse style="fill: none; fill-opacity:0; stroke-width: 2; stroke: #000000" cx="-181.34" cy="-52.2439" rx="31.55" ry="18"/>
    <text font-size="12.7998" style="fill: #000000;text-anchor:middle;font-family:monospace;font-style:normal;font-weight:normal" x="-181.34" y="-48.2439">Año</text>
  </g>
  <line style="fill: none; fill-opacity:0; stroke-width: 2; stroke: #000000" x1="-150.97" y1="-45.5535" x2="-23.8287" y2="-17.5447"/>
  <line style="fill: none; fill-opacity:0; stroke-width: 2; stroke: #000000" x1="-90.8181" y1="-72.0244" x2="-20.6467" y2="-29.0092"/>
  <line style="fill: none; fill-opacity:0; stroke-width: 2; stroke: #000000" x1="-10.0098" y1="-69.2318" x2="3.80286" y2="-29.0241"/>
  <line style="fill: none; fill-opacity:0; stroke-width: 2; stroke: #000000" x1="309.773" y1="173.764" x2="341.374" y2="175.142"/>
  <line style="fill: none; fill-opacity:0; stroke-width: 2; stroke: #000000" x1="106.895" y1="-85.0375" x2="34.7796" y2="-29.0124"/>
  <g>
    <ellipse style="fill: #ffffff" cx="-343.129" cy="-5.60988" rx="43.1" ry="18"/>
    <ellipse style="fill: none; fill-opacity:0; stroke-width: 2; stroke: #000000" cx="-343.129" cy="-5.60988" rx="43.1" ry="18"/>
    <text font-size="12.7998" style="fill: #000000;text-anchor:middle;font-family:monospace;font-style:normal;font-weight:normal" x="-343.129" y="-1.60988">Nombre</text>
  </g>
  <g>
    <ellipse style="fill: #ffffff" cx="-296.9" cy="164.415" rx="43.1" ry="18"/>
    <ellipse style="fill: none; fill-opacity:0; stroke-width: 2; stroke: #000000" cx="-296.9" cy="164.415" rx="43.1" ry="18"/>
    <text font-size="12.7998" style="fill: #000000;text-anchor:middle;font-family:monospace;font-style:normal;font-weight:normal" x="-296.9" y="168.415">Nombre</text>
  </g>
  <line style="fill: none; fill-opacity:0; stroke-width: 2; stroke: #000000" x1="-321.775" y1="10.8182" x2="-278.402" y2="44.1865"/>
  <line style="fill: none; fill-opacity:0; stroke-width: 2; stroke: #000000" x1="-288.897" y1="182.993" x2="-274.62" y2="216.136"/>
  <g>
    <ellipse style="fill: #ffffff" cx="467.978" cy="-61.8049" rx="43.1" ry="18"/>
    <ellipse style="fill: none; fill-opacity:0; stroke-width: 2; stroke: #000000" cx="467.978" cy="-61.8049" rx="43.1" ry="18"/>
    <text font-size="12.7998" style="fill: #000000;text-anchor:middle;font-family:monospace;font-style:normal;font-weight:normal" x="467.978" y="-57.8049">Nombre</text>
  </g>
  <line style="fill: none; fill-opacity:0; stroke-width: 2; stroke: #000000" x1="471.257" y1="-42.8647" x2="478.328" y2="-2.02401"/>
  <g>
    <ellipse style="fill: #ffffff" cx="-170.943" cy="2.21951" rx="62.35" ry="18"/>
    <ellipse style="fill: none; fill-opacity:0; stroke-width: 2; stroke: #000000" cx="-170.943" cy="2.21951" rx="62.35" ry="18"/>
    <text font-size="12.7998" style="fill: #000000;text-anchor:middle;font-family:monospace;font-style:normal;font-weight:normal" x="-170.943" y="6.21951">idEditorial</text>
    <line style="fill: none; fill-opacity:0; stroke-width: 2; stroke: #000000" x1="-213.293" y1="10.2195" x2="-128.593" y2="10.2195"/>
  </g>
  <line style="fill: none; fill-opacity:0; stroke-width: 2; stroke: #000000" x1="-194.518" y1="19.5705" x2="-227.928" y2="44.1595"/>
  <g>
    <ellipse style="fill: #ffffff" cx="69.7549" cy="102.951" rx="46.95" ry="18"/>
    <ellipse style="fill: none; fill-opacity:0; stroke-width: 2; stroke: #000000" cx="69.7549" cy="102.951" rx="46.95" ry="18"/>
    <text font-size="12.7998" style="fill: #000000;text-anchor:middle;font-family:monospace;font-style:normal;font-weight:normal" x="69.7549" y="106.951">idLibro</text>
    <line style="fill: none; fill-opacity:0; stroke-width: 2; stroke: #000000" x1="42.8049" y1="110.951" x2="96.7049" y2="110.951"/>
  </g>
  <line style="fill: none; fill-opacity:0; stroke-width: 2; stroke: #000000" x1="20.3201" y1="8.96997" x2="60.2379" y2="84.8583"/>
  <g>
    <ellipse style="fill: #ffffff" cx="-177.371" cy="172.098" rx="50.8" ry="18"/>
    <ellipse style="fill: none; fill-opacity:0; stroke-width: 2; stroke: #000000" cx="-177.371" cy="172.098" rx="50.8" ry="18"/>
    <text font-size="12.7998" style="fill: #000000;text-anchor:middle;font-family:monospace;font-style:normal;font-weight:normal" x="-177.371" y="176.098">idGenero</text>
    <line style="fill: none; fill-opacity:0; stroke-width: 2; stroke: #000000" x1="-208.171" y1="180.098" x2="-146.571" y2="180.098"/>
  </g>
  <line style="fill: none; fill-opacity:0; stroke-width: 2; stroke: #000000" x1="-200.898" y1="188.75" x2="-239.591" y2="216.138"/>
  <g>
    <ellipse style="fill: #ffffff" cx="482.84" cy="92.878" rx="46.95" ry="18"/>
    <ellipse style="fill: none; fill-opacity:0; stroke-width: 2; stroke: #000000" cx="482.84" cy="92.878" rx="46.95" ry="18"/>
    <text font-size="12.7998" style="fill: #000000;text-anchor:middle;font-family:monospace;font-style:normal;font-weight:normal" x="482.84" y="96.878">idAutor</text>
    <line style="fill: none; fill-opacity:0; stroke-width: 2; stroke: #000000" x1="455.89" y1="100.878" x2="509.79" y2="100.878"/>
  </g>
  <line style="fill: none; fill-opacity:0; stroke-width: 2; stroke: #000000" x1="481.883" y1="35.6712" x2="482.523" y2="73.8835"/>
  <g>
    <ellipse style="fill: #ffffff" cx="353.622" cy="114.902" rx="58.5" ry="18"/>
    <ellipse style="fill: none; fill-opacity:0; stroke-width: 2; stroke: #000000" cx="353.622" cy="114.902" rx="58.5" ry="18"/>
    <text font-size="12.7998" style="fill: #000000;text-anchor:middle;font-family:monospace;font-style:normal;font-weight:normal" x="353.622" y="118.902">idRelacion</text>
    <line style="fill: none; fill-opacity:0; stroke-width: 2; stroke: #000000" x1="315.122" y1="122.902" x2="392.122" y2="122.902"/>
  </g>
  <line style="fill: none; fill-opacity:0; stroke-width: 2; stroke: #000000" x1="281.65" y1="151.928" x2="322.714" y2="130.803"/>
  <g>
    <ellipse style="fill: #ffffff" cx="389.023" cy="177.22" rx="46.95" ry="18"/>
    <ellipse style="fill: none; fill-opacity:0; stroke-width: 2; stroke: #000000" cx="389.023" cy="177.22" rx="46.95" ry="18"/>
    <text font-size="12.7998" style="fill: #000000;text-anchor:middle;font-family:monospace;font-style:normal;font-weight:normal" x="389.023" y="181.22">idAutor</text>
    <line style="fill: none; fill-opacity:0; stroke-width: 2; stroke-dasharray: 6; stroke: #000000" x1="362.073" y1="185.22" x2="415.973" y2="185.22"/>
  </g>
  <g>
    <ellipse style="fill: #ffffff" cx="334.304" cy="242.728" rx="46.95" ry="18"/>
    <ellipse style="fill: none; fill-opacity:0; stroke-width: 2; stroke: #000000" cx="334.304" cy="242.728" rx="46.95" ry="18"/>
    <text font-size="12.7998" style="fill: #000000;text-anchor:middle;font-family:monospace;font-style:normal;font-weight:normal" x="334.304" y="246.728">idLibro</text>
    <line style="fill: none; fill-opacity:0; stroke-width: 2; stroke-dasharray: 6; stroke: #000000" x1="307.354" y1="250.728" x2="361.254" y2="250.728"/>
  </g>
  <line style="fill: none; fill-opacity:0; stroke-width: 2; stroke: #000000" x1="268.385" y1="189.894" x2="313.286" y2="225.882"/>
  <g>
    <ellipse style="fill: #ffffff" cx="160.734" cy="275.583" rx="50.8" ry="18"/>
    <ellipse style="fill: none; fill-opacity:0; stroke-width: 2; stroke: #000000" cx="160.734" cy="275.583" rx="50.8" ry="18"/>
    <text font-size="12.7998" style="fill: #000000;text-anchor:middle;font-family:monospace;font-style:normal;font-weight:normal" x="160.734" y="279.583">idGenero</text>
    <line style="fill: none; fill-opacity:0; stroke-width: 2; stroke-dasharray: 6; stroke: #000000" x1="129.934" y1="283.583" x2="191.534" y2="283.583"/>
  </g>
  <line style="fill: none; fill-opacity:0; stroke-width: 2; stroke: #000000" x1="229.547" y1="189.834" x2="175.256" y2="257.487"/>
</svg>
